HIERARCHY
ROOT Hips
{
 OFFSET 0.000000 0.000000 0.000000
 CHANNELS 6 Xposition Yposition Zposition Yrotation Xrotation Zrotation
 JOINT Chest
 {
  OFFSET 0.000000 12.778769 -0.025672
  CHANNELS 3 Yrotation Xrotation Zrotation
  JOINT Chest2
  {
   OFFSET 0.000000 9.048585 0.046633
   CHANNELS 3 Yrotation Xrotation Zrotation
   JOINT Chest3
   {
    OFFSET 0.000000 8.173956 0.000000
    CHANNELS 3 Yrotation Xrotation Zrotation
    JOINT Chest4
    {
     OFFSET 0.000000 8.173956 0.000000
     CHANNELS 3 Yrotation Xrotation Zrotation
     JOINT Neck
     {
      OFFSET 0.000000 11.254521 0.000000
      CHANNELS 3 Yrotation Xrotation Zrotation
      JOINT Head
      {
       OFFSET 0.000000 7.627541 0.110895
       CHANNELS 3 Yrotation Xrotation Zrotation
       End Site
       {
        OFFSET 0.000000 14.324091 0.057923
       }
      }
     }
     JOINT RightCollar
     {
      OFFSET -2.416021 6.309018 0.000000
      CHANNELS 3 Yrotation Xrotation Zrotation
      JOINT RightShoulder
      {
       OFFSET -12.309578 0.000000 0.000000
       CHANNELS 3 Yrotation Xrotation Zrotation
       JOINT RightElbow
       {
        OFFSET -26.817880 0.000000 0.000000
        CHANNELS 3 Yrotation Xrotation Zrotation
        JOINT RightWrist
        {
         OFFSET -22.046493 0.000000 0.005727
         CHANNELS 3 Yrotation Xrotation Zrotation
         End Site
         {
          OFFSET -16.516461 0.000000 0.000000
         }
        }
       }
      }
     }
     JOINT LeftCollar
     {
      OFFSET 2.416021 6.309018 0.000000
      CHANNELS 3 Yrotation Xrotation Zrotation
      JOINT LeftShoulder
      {
       OFFSET 12.309578 0.000000 0.000000
       CHANNELS 3 Yrotation Xrotation Zrotation
       JOINT LeftElbow
       {
        OFFSET 26.817880 0.000000 0.000000
        CHANNELS 3 Yrotation Xrotation Zrotation
        JOINT LeftWrist
        {
         OFFSET 22.046493 0.000000 0.005727
         CHANNELS 3 Yrotation Xrotation Zrotation
         End Site
         {
          OFFSET 16.516461 0.000000 0.000000
         }
        }
       }
      }
     }
    }
   }
  }
 }
 JOINT RightHip
 {
  OFFSET -10.582077 0.125794 0.012836
  CHANNELS 3 Yrotation Xrotation Zrotation
  JOINT RightKnee
  {
   OFFSET 0.000000 -43.218284 0.001140
   CHANNELS 3 Yrotation Xrotation Zrotation
   JOINT RightAnkle
   {
    OFFSET 0.000000 -37.342314 0.092095
    CHANNELS 3 Yrotation Xrotation Zrotation
    JOINT RightToe
    {
     OFFSET 0.000000 -11.963287 17.799678
     CHANNELS 3 Yrotation Xrotation Zrotation
     End Site
     {
      OFFSET 0.000000 -1.355498 5.291052
     }
    }
   }
  }
 }
 JOINT LeftHip
 {
  OFFSET 10.582077 0.125794 0.012836
  CHANNELS 3 Yrotation Xrotation Zrotation
  JOINT LeftKnee
  {
   OFFSET 0.000000 -43.218284 0.001140
   CHANNELS 3 Yrotation Xrotation Zrotation
   JOINT LeftAnkle
   {
    OFFSET 0.000000 -37.342314 0.092095
    CHANNELS 3 Yrotation Xrotation Zrotation
    JOINT LeftToe
    {
     OFFSET 0.000000 -11.963287 17.799678
     CHANNELS 3 Yrotation Xrotation Zrotation
     End Site
     {
      OFFSET 0.000000 -1.355498 5.291052
     }
    }
   }
  }
 }
}
MOTION
Frames: 14
Frame Time: 0.016667
0.000000 92.231762 0.000000 0.000000 -5.826342 0.000000 0.000000 11.116423 0.000000 0.000000 -5.290081 0.000000 0.000000 0.000000 0.000000 0.000000 0.000000 0.000000 0.000000 12.665069 0.000000 0.000000 0.575450 0.000000 0.000000 0.000000 0.000000 0.000000 0.000000 0.000000 2.337306 0.000000 0.000000 -2.337306 0.000000 0.000000 0.000000 0.000000 0.000000 0.000000 0.000000 0.000000 -2.337306 0.000000 0.000000 2.337306 0.000000 0.000000 0.000000 8.578828 0.000000 0.000000 1.905768 0.000000 0.000000 -4.658254 0.000000 0.000000 0.000000 0.000000 0.000000 8.578828 0.000000 0.000000 1.905768 0.000000 0.000000 -4.658254 0.000000 0.000000 0.000000 0.000000
-55.290929 94.257914 -169.491068 -164.598505 -6.868006 -1.001464 -2.580179 -0.073150 -1.907360 -1.194739 0.009880 -0.819666 -1.194739 0.009880 -0.819666 -0.896043 0.009012 -0.614733 -3.268711 19.632776 -1.370312 -5.542812 0.279200 -1.484380 -0.222639 1.913000 13.095860 -4.362136 -3.811626 70.995940 -46.678200 28.100200 79.085572 5.603898 0.249680 3.584360 1.637825 3.077417 -9.157857 23.015941 -5.116953 -68.883804 79.809541 20.262988 -37.578409 0.255405 0.138033 -1.543892 3.698539 9.756627 0.109978 9.880207 -2.192857 -2.647674 -4.517822 -1.985060 1.106287 -0.384897 0.242772 -0.222094 0.327209 8.869444 0.517978 7.557647 2.781639 0.258627 -3.093974 -6.282504 -0.751622 0.149620 -0.113762 -0.098385
-55.250052 94.259301 -169.425901 -164.634215 -6.871572 -1.009712 -2.565958 -0.108326 -1.899357 -1.190858 -0.004978 -0.816116 -1.190858 -0.004978 -0.816116 -0.893152 -0.002143 -0.612099 -3.284980 19.621256 -1.376700 -5.570635 0.257875 -1.490600 -0.238229 1.912542 13.089721 -4.352655 -3.803538 70.969674 -46.624686 28.114019 79.141263 5.581196 0.309845 3.575878 1.628573 3.075818 -9.155944 23.037822 -5.096584 -68.842810 79.814758 20.250253 -37.587254 0.149513 0.129319 -1.574607 3.739702 9.710784 0.129436 9.869800 -2.203644 -2.633450 -4.524247 -1.965542 1.085144 -0.390046 0.238084 -0.226674 0.332676 8.819379 0.533348 7.580398 2.791452 0.261827 -3.097647 -6.241567 -0.732373 0.150934 -0.088202 -0.078241
-55.212262 94.261734 -169.361134 -164.671970 -6.881363 -1.018448 -2.555707 -0.134148 -1.890032 -1.184982 -0.019376 -0.812825 -1.184982 -0.019376 -0.812825 -0.888764 -0.012956 -0.609659 -3.298870 19.604943 -1.379918 -5.595149 0.227720 -1.491606 -0.254885 1.914590 13.075416 -4.325110 -3.809785 70.950047 -46.562761 28.133432 79.218210 5.517022 0.359006 3.545149 1.609843 3.069307 -9.159705 23.105397 -5.082917 -68.820098 79.832492 20.226719 -37.570823 0.083502 0.105139 -1.531361 3.803536 9.671210 0.149776 9.850451 -2.217463 -2.624090 -4.583093 -1.935551 1.059322 -0.379018 0.230462 -0.218016 0.345468 8.780019 0.554665 7.600740 2.800297 0.269937 -3.108262 -6.205287 -0.721335 0.147936 -0.065583 -0.063258
-55.178278 94.265449 -169.292088 -164.722375 -6.886577 -1.022438 -2.533351 -0.165811 -1.882013 -1.176783 -0.033272 -0.811602 -1.176783 -0.033272 -0.811602 -0.882633 -0.023391 -0.608768 -3.314232 19.587077 -1.377971 -5.623984 0.194888 -1.482667 -0.274849 1.913598 13.055566 -4.292738 -3.812782 70.947833 -46.485177 28.157916 79.303608 5.463963 0.407642 3.534333 1.582139 3.059160 -9.165627 23.202404 -5.076837 -68.810425 79.872070 20.200961 -37.528702 0.044849 0.067038 -1.428808 3.907078 9.621234 0.172094 9.811968 -2.224414 -2.609500 -4.551371 -1.908864 1.033413 -0.376331 0.223655 -0.216631 0.367013 8.738511 0.562298 7.617504 2.797562 0.279232 -3.097415 -6.159865 -0.706333 0.147216 -0.047834 -0.049610
-55.149131 94.270348 -169.216777 -164.772267 -6.892320 -1.025600 -2.511024 -0.202388 -1.877839 -1.170948 -0.047117 -0.813851 -1.170948 -0.047117 -0.813851 -0.878275 -0.033779 -0.610481 -3.327297 19.569310 -1.373052 -5.649557 0.162306 -1.469012 -0.280823 1.920192 13.037299 -4.251381 -3.810939 70.973359 -46.365075 28.183190 79.411056 5.459784 0.470133 3.542725 1.561896 3.055960 -9.164968 23.300048 -5.072948 -68.816083 79.922978 20.158007 -37.472787 0.011029 0.019849 -1.301305 4.011000 9.562622 0.176544 9.779543 -2.225541 -2.575351 -4.492935 -1.880556 1.004114 -0.371252 0.215753 -0.213713 0.378001 8.702187 0.566724 7.621157 2.782455 0.287021 -3.029043 -6.109002 -0.693378 0.145042 -0.031453 -0.039793
-55.125548 94.276107 -169.142153 -164.807667 -6.910299 -1.026847 -2.499606 -0.230443 -1.882281 -1.167309 -0.059488 -0.818335 -1.167309 -0.059488 -0.818335 -0.875563 -0.043053 -0.613868 -3.338954 19.552152 -1.366278 -5.673140 0.130900 -1.452421 -0.277565 1.923186 13.018789 -4.206107 -3.796053 71.018513 -46.221722 28.201845 79.518202 5.453426 0.548649 3.549676 1.546959 3.049119 -9.156930 23.376250 -5.052136 -68.835374 79.962128 20.109933 -37.413411 -0.054778 -0.062984 -1.184170 4.072495 9.541843 0.161439 9.751042 -2.274199 -2.530254 -4.506040 -1.828744 0.972803 -0.365418 0.208119 -0.210668 0.357590 8.674283 0.560528 7.635689 2.773824 0.291216 -2.990365 -6.061363 -0.675669 0.144791 -0.018232 -0.026251
-55.104700 94.283119 -169.073358 -164.814100 -6.947785 -1.025729 -2.505222 -0.243422 -1.895505 -1.165582 -0.068367 -0.823811 -1.165582 -0.068367 -0.823811 -0.874281 -0.049705 -0.617991 -3.353950 19.535303 -1.358093 -5.703268 0.100183 -1.432217 -0.271084 1.922159 12.998886 -4.165068 -3.767917 71.076545 -46.078976 28.236067 79.593753 5.472373 0.654289 3.557815 1.524473 3.027273 -9.146562 23.422152 -5.001436 -68.865472 80.001430 20.032463 -37.353132 -0.193707 -0.189015 -1.088343 4.076242 9.579551 0.143558 9.732633 -2.381811 -2.507465 -4.537264 -1.752882 0.948640 -0.354516 0.200450 -0.205138 0.307806 8.670048 0.556998 7.686553 2.763224 0.284159 -2.998988 -6.016226 -0.660451 0.144479 -0.007351 -0.009311
-55.080289 94.290921 -169.010228 -164.815366 -6.986063 -1.026758 -2.506922 -0.257102 -1.905484 -1.163660 -0.076235 -0.828979 -1.163660 -0.076235 -0.828979 -0.872850 -0.055598 -0.621882 -3.374204 19.521466 -1.350542 -5.742785 0.075138 -1.411623 -0.276112 1.909128 12.971457 -4.110490 -3.716828 71.150163 -45.956341 28.271432 79.620043 5.531568 0.747704 3.554754 1.493972 2.999668 -9.134634 23.439854 -4.921870 -68.909289 80.030855 19.947892 -37.290779 -0.370647 -0.295928 -1.002311 4.051675 9.638294 0.139796 9.735660 -2.520242 -2.512201 -4.547177 -1.663950 0.928513 -0.340640 0.192347 -0.196808 0.275835 8.665380 0.569440 7.800293 2.767174 0.266896 -3.142013 -6.004695 -0.662908 0.141408 0.016566 0.024910
-55.054572 94.299441 -168.955118 -164.809339 -7.032875 -1.030182 -2.519325 -0.257426 -1.917245 -1.166362 -0.079840 -0.834622 -1.166362 -0.079840 -0.834622 -0.874882 -0.058287 -0.626121 -3.388893 19.506071 -1.341869 -5.772508 0.047148 -1.390655 -0.271472 1.877991 12.942172 -4.037832 -3.655527 71.244088 -45.924547 28.314260 79.536012 5.631205 0.841816 3.559335 1.476281 2.954770 -9.113231 23.450171 -4.823962 -68.980290 80.044317 19.847691 -37.214002 -0.523207 -0.341847 -0.890349 3.996555 9.725158 0.147749 9.770310 -2.690336 -2.540337 -4.538780 -1.554149 0.893315 -0.302151 0.175375 -0.168791 0.270654 8.698795 0.598170 7.922898 2.731373 0.239571 -3.263820 -6.012710 -0.681376 0.132999 0.060930 0.057526
-55.026706 94.308551 -168.904755 -164.812252 -7.068500 -1.031389 -2.524119 -0.275122 -1.928777 -1.170301 -0.086336 -0.841121 -1.170301 -0.086336 -0.841121 -0.877846 -0.063142 -0.631009 -3.401133 19.498459 -1.335722 -5.796886 0.033471 -1.375335 -0.259854 1.847746 12.910913 -3.957441 -3.589132 71.348165 -45.990367 28.361430 79.356320 5.749150 0.939195 3.578353 1.456155 2.902626 -9.085432 23.467191 -4.699341 -69.070868 80.029517 19.749578 -37.126502 -0.611639 -0.381968 -0.750753 3.927531 9.811782 0.158109 9.778406 -2.871040 -2.575430 -4.456677 -1.466150 0.865076 -0.282927 0.174881 -0.150288 0.303572 8.754922 0.624362 8.004916 2.634547 0.213342 -3.354153 -5.999710 -0.700262 0.124626 0.100821 0.079528
-55.007204 94.318026 -168.857897 -164.815334 -7.099667 -1.030729 -2.525954 -0.300825 -1.939825 -1.174412 -0.095464 -0.848038 -1.174412 -0.095464 -0.848038 -0.880943 -0.069969 -0.636214 -3.415350 19.497175 -1.330817 -5.824421 0.031538 -1.361888 -0.248159 1.806663 12.875601 -3.877310 -3.504588 71.471004 -46.077728 28.405230 79.125160 5.881318 1.021850 3.608558 1.438360 2.843671 -9.066241 23.484832 -4.561192 -69.167437 79.992947 19.664724 -37.022074 -0.656027 -0.427700 -0.570687 3.866632 9.910752 0.157788 9.727024 -3.080526 -2.596308 -4.299907 -1.381330 0.826846 -0.263041 0.179773 -0.128918 0.358270 8.839443 0.649440 8.046354 2.485753 0.180305 -3.393931 -6.005917 -0.746553 0.110754 0.163314 0.116918
-54.999814 94.328049 -168.815054 -164.812315 -7.134302 -1.034295 -2.531724 -0.331877 -1.947034 -1.179045 -0.107631 -0.854454 -1.179045 -0.107631 -0.854454 -0.884436 -0.079075 -0.641050 -3.433150 19.506146 -1.329343 -5.857316 0.048587 -1.353955 -0.229157 1.754943 12.830069 -3.791213 -3.398814 71.628047 -46.178999 28.434571 78.851513 6.044767 1.082290 3.633272 1.415877 2.781127 -9.056022 23.509504 -4.415246 -69.266948 79.962420 19.573392 -36.888075 -0.710840 -0.506168 -0.361230 3.824477 10.037548 0.152213 9.663177 -3.329403 -2.614908 -4.298177 -1.276694 0.786179 -0.235171 0.179617 -0.100803 0.427118 8.926449 0.675177 8.100097 2.385149 0.167245 -3.590127 -6.204869 -0.901692 0.091283 0.326469 0.232079
-55.009416 94.339459 -168.760353 -164.800270 -7.165343 -1.026541 -2.546275 -0.379123 -1.971644 -1.182339 -0.124582 -0.861919 -1.182339 -0.124582 -0.861919 -0.886931 -0.091769 -0.646683 -3.452878 19.530757 -1.327539 -5.893656 0.094721 -1.345391 -0.209924 1.705182 12.780960 -3.701509 -3.274234 71.819480 -46.347168 28.455680 78.484890 6.268556 1.146205 3.645396 1.391579 2.724505 -9.047987 23.535404 -4.259905 -69.354230 79.966787 19.419391 -36.700591 -0.778357 -0.576091 -0.131470 3.797191 10.177667 0.135828 9.616116 -3.611809 -2.648914 -4.300685 -1.156416 0.753061 -0.198544 0.179191 -0.070351 0.515629 9.053946 0.691274 8.233933 2.217578 0.140492 -3.881724 -6.457915 -1.078717 0.068998 0.521763 0.346739
